G75*
G70*
%OFA0B0*%
%FSLAX24Y24*%
%IPPOS*%
%LPD*%
%AMOC8*
5,1,8,0,0,1.08239X$1,22.5*
%
%ADD10C,0.1340*%
%ADD11O,0.0907X0.0493*%
%ADD12R,0.0730X0.0730*%
%ADD13OC8,0.0671*%
%ADD14R,0.0611X0.0611*%
%ADD15C,0.0611*%
%ADD16R,0.0316X0.0395*%
%ADD17R,0.0395X0.0316*%
D10*
X007213Y008120D03*
X007213Y028120D03*
X031213Y024120D03*
X033213Y024120D03*
X035213Y024120D03*
X035213Y028120D03*
X035213Y012120D03*
X033213Y012120D03*
X031213Y012120D03*
X035213Y008120D03*
D11*
X006894Y015175D03*
X006894Y017065D03*
D12*
X005713Y017124D03*
X005713Y015116D03*
D13*
X008713Y012120D03*
X009713Y012120D03*
X010713Y012120D03*
X011713Y012120D03*
X012713Y012120D03*
X013713Y012120D03*
X013713Y008120D03*
X012713Y008120D03*
X012713Y007120D03*
X013713Y007120D03*
X014713Y007120D03*
X015713Y007120D03*
X016713Y007120D03*
X017713Y007120D03*
X018713Y007120D03*
X019713Y007120D03*
X020713Y007120D03*
X021713Y007120D03*
X022713Y007120D03*
X023713Y007120D03*
X024713Y007120D03*
X025713Y007120D03*
X026713Y007120D03*
X027713Y007120D03*
X028713Y007120D03*
X029713Y007120D03*
X030713Y007120D03*
X030713Y008120D03*
X029713Y008120D03*
X028713Y008120D03*
X027713Y008120D03*
X026713Y008120D03*
X025713Y008120D03*
X024713Y008120D03*
X023713Y008120D03*
X022713Y008120D03*
X021713Y008120D03*
X020713Y008120D03*
X019713Y008120D03*
X018713Y008120D03*
X017713Y008120D03*
X016713Y008120D03*
X015713Y008120D03*
X014713Y008120D03*
X011713Y008120D03*
X011713Y007120D03*
X011713Y028120D03*
X012713Y028120D03*
X013713Y028120D03*
X014713Y028120D03*
X015713Y028120D03*
X016713Y028120D03*
X017713Y028120D03*
X018713Y028120D03*
X019713Y028120D03*
X020713Y028120D03*
X021713Y028120D03*
X022713Y028120D03*
X023713Y028120D03*
X024713Y028120D03*
X025713Y028120D03*
X026713Y028120D03*
X027713Y028120D03*
X028713Y028120D03*
X029713Y028120D03*
X030713Y028120D03*
X030713Y029120D03*
X029713Y029120D03*
X028713Y029120D03*
X027713Y029120D03*
X026713Y029120D03*
X025713Y029120D03*
X024713Y029120D03*
X023713Y029120D03*
X022713Y029120D03*
X021713Y029120D03*
X020713Y029120D03*
X019713Y029120D03*
X018713Y029120D03*
X017713Y029120D03*
X016713Y029120D03*
X015713Y029120D03*
X014713Y029120D03*
X013713Y029120D03*
X012713Y029120D03*
X011713Y029120D03*
D14*
X028213Y022620D03*
X017213Y013120D03*
X013713Y011120D03*
X012713Y011120D03*
X011713Y011120D03*
X010713Y011120D03*
X009713Y011120D03*
X008713Y011120D03*
D15*
X015213Y012120D03*
X016213Y012120D03*
X017213Y012120D03*
X016213Y013120D03*
X015213Y013120D03*
X028213Y020620D03*
X029213Y020620D03*
X029213Y021620D03*
X028213Y021620D03*
X029213Y022620D03*
D16*
X022698Y016990D03*
X022068Y016990D03*
X022488Y016260D03*
X023118Y016260D03*
X023148Y015000D03*
X023778Y015000D03*
X025008Y015900D03*
X025638Y015900D03*
X020738Y015080D03*
X020108Y015080D03*
D17*
X021973Y017675D03*
X021973Y018305D03*
X022783Y018215D03*
X022783Y017585D03*
X024763Y019585D03*
X024763Y020215D03*
M02*
