G75*
G70*
%OFA0B0*%
%FSLAX24Y24*%
%IPPOS*%
%LPD*%
%AMOC8*
5,1,8,0,0,1.08239X$1,22.5*
%
%ADD10C,0.0000*%
%ADD11C,0.0070*%
%ADD12C,0.0040*%
%ADD13C,0.0050*%
%ADD14C,0.0030*%
%ADD15C,0.0010*%
D10*
X005213Y006120D02*
X005213Y030120D01*
X037213Y030120D01*
X037213Y006120D01*
X005213Y006120D01*
X006583Y008120D02*
X006586Y008177D01*
X006593Y008234D01*
X006606Y008290D01*
X006624Y008344D01*
X006647Y008397D01*
X006675Y008447D01*
X006707Y008495D01*
X006743Y008539D01*
X006783Y008580D01*
X006827Y008618D01*
X006873Y008651D01*
X006923Y008679D01*
X006975Y008703D01*
X007029Y008723D01*
X007085Y008737D01*
X007141Y008746D01*
X007199Y008750D01*
X007256Y008749D01*
X007313Y008742D01*
X007369Y008730D01*
X007424Y008714D01*
X007477Y008692D01*
X007528Y008666D01*
X007576Y008635D01*
X007622Y008600D01*
X007664Y008560D01*
X007702Y008518D01*
X007736Y008471D01*
X007766Y008422D01*
X007791Y008371D01*
X007811Y008317D01*
X007827Y008262D01*
X007837Y008206D01*
X007842Y008149D01*
X007842Y008091D01*
X007837Y008034D01*
X007827Y007978D01*
X007811Y007923D01*
X007791Y007869D01*
X007766Y007818D01*
X007736Y007769D01*
X007702Y007722D01*
X007664Y007680D01*
X007622Y007640D01*
X007576Y007605D01*
X007528Y007574D01*
X007477Y007548D01*
X007424Y007526D01*
X007369Y007510D01*
X007313Y007498D01*
X007256Y007491D01*
X007199Y007490D01*
X007141Y007494D01*
X007085Y007503D01*
X007029Y007517D01*
X006975Y007537D01*
X006923Y007561D01*
X006873Y007589D01*
X006827Y007622D01*
X006783Y007660D01*
X006743Y007701D01*
X006707Y007745D01*
X006675Y007793D01*
X006647Y007843D01*
X006624Y007896D01*
X006606Y007950D01*
X006593Y008006D01*
X006586Y008063D01*
X006583Y008120D01*
X006583Y028120D02*
X006586Y028177D01*
X006593Y028234D01*
X006606Y028290D01*
X006624Y028344D01*
X006647Y028397D01*
X006675Y028447D01*
X006707Y028495D01*
X006743Y028539D01*
X006783Y028580D01*
X006827Y028618D01*
X006873Y028651D01*
X006923Y028679D01*
X006975Y028703D01*
X007029Y028723D01*
X007085Y028737D01*
X007141Y028746D01*
X007199Y028750D01*
X007256Y028749D01*
X007313Y028742D01*
X007369Y028730D01*
X007424Y028714D01*
X007477Y028692D01*
X007528Y028666D01*
X007576Y028635D01*
X007622Y028600D01*
X007664Y028560D01*
X007702Y028518D01*
X007736Y028471D01*
X007766Y028422D01*
X007791Y028371D01*
X007811Y028317D01*
X007827Y028262D01*
X007837Y028206D01*
X007842Y028149D01*
X007842Y028091D01*
X007837Y028034D01*
X007827Y027978D01*
X007811Y027923D01*
X007791Y027869D01*
X007766Y027818D01*
X007736Y027769D01*
X007702Y027722D01*
X007664Y027680D01*
X007622Y027640D01*
X007576Y027605D01*
X007528Y027574D01*
X007477Y027548D01*
X007424Y027526D01*
X007369Y027510D01*
X007313Y027498D01*
X007256Y027491D01*
X007199Y027490D01*
X007141Y027494D01*
X007085Y027503D01*
X007029Y027517D01*
X006975Y027537D01*
X006923Y027561D01*
X006873Y027589D01*
X006827Y027622D01*
X006783Y027660D01*
X006743Y027701D01*
X006707Y027745D01*
X006675Y027793D01*
X006647Y027843D01*
X006624Y027896D01*
X006606Y027950D01*
X006593Y028006D01*
X006586Y028063D01*
X006583Y028120D01*
X030583Y024120D02*
X030586Y024177D01*
X030593Y024234D01*
X030606Y024290D01*
X030624Y024344D01*
X030647Y024397D01*
X030675Y024447D01*
X030707Y024495D01*
X030743Y024539D01*
X030783Y024580D01*
X030827Y024618D01*
X030873Y024651D01*
X030923Y024679D01*
X030975Y024703D01*
X031029Y024723D01*
X031085Y024737D01*
X031141Y024746D01*
X031199Y024750D01*
X031256Y024749D01*
X031313Y024742D01*
X031369Y024730D01*
X031424Y024714D01*
X031477Y024692D01*
X031528Y024666D01*
X031576Y024635D01*
X031622Y024600D01*
X031664Y024560D01*
X031702Y024518D01*
X031736Y024471D01*
X031766Y024422D01*
X031791Y024371D01*
X031811Y024317D01*
X031827Y024262D01*
X031837Y024206D01*
X031842Y024149D01*
X031842Y024091D01*
X031837Y024034D01*
X031827Y023978D01*
X031811Y023923D01*
X031791Y023869D01*
X031766Y023818D01*
X031736Y023769D01*
X031702Y023722D01*
X031664Y023680D01*
X031622Y023640D01*
X031576Y023605D01*
X031528Y023574D01*
X031477Y023548D01*
X031424Y023526D01*
X031369Y023510D01*
X031313Y023498D01*
X031256Y023491D01*
X031199Y023490D01*
X031141Y023494D01*
X031085Y023503D01*
X031029Y023517D01*
X030975Y023537D01*
X030923Y023561D01*
X030873Y023589D01*
X030827Y023622D01*
X030783Y023660D01*
X030743Y023701D01*
X030707Y023745D01*
X030675Y023793D01*
X030647Y023843D01*
X030624Y023896D01*
X030606Y023950D01*
X030593Y024006D01*
X030586Y024063D01*
X030583Y024120D01*
X032583Y024120D02*
X032586Y024177D01*
X032593Y024234D01*
X032606Y024290D01*
X032624Y024344D01*
X032647Y024397D01*
X032675Y024447D01*
X032707Y024495D01*
X032743Y024539D01*
X032783Y024580D01*
X032827Y024618D01*
X032873Y024651D01*
X032923Y024679D01*
X032975Y024703D01*
X033029Y024723D01*
X033085Y024737D01*
X033141Y024746D01*
X033199Y024750D01*
X033256Y024749D01*
X033313Y024742D01*
X033369Y024730D01*
X033424Y024714D01*
X033477Y024692D01*
X033528Y024666D01*
X033576Y024635D01*
X033622Y024600D01*
X033664Y024560D01*
X033702Y024518D01*
X033736Y024471D01*
X033766Y024422D01*
X033791Y024371D01*
X033811Y024317D01*
X033827Y024262D01*
X033837Y024206D01*
X033842Y024149D01*
X033842Y024091D01*
X033837Y024034D01*
X033827Y023978D01*
X033811Y023923D01*
X033791Y023869D01*
X033766Y023818D01*
X033736Y023769D01*
X033702Y023722D01*
X033664Y023680D01*
X033622Y023640D01*
X033576Y023605D01*
X033528Y023574D01*
X033477Y023548D01*
X033424Y023526D01*
X033369Y023510D01*
X033313Y023498D01*
X033256Y023491D01*
X033199Y023490D01*
X033141Y023494D01*
X033085Y023503D01*
X033029Y023517D01*
X032975Y023537D01*
X032923Y023561D01*
X032873Y023589D01*
X032827Y023622D01*
X032783Y023660D01*
X032743Y023701D01*
X032707Y023745D01*
X032675Y023793D01*
X032647Y023843D01*
X032624Y023896D01*
X032606Y023950D01*
X032593Y024006D01*
X032586Y024063D01*
X032583Y024120D01*
X034583Y024120D02*
X034586Y024177D01*
X034593Y024234D01*
X034606Y024290D01*
X034624Y024344D01*
X034647Y024397D01*
X034675Y024447D01*
X034707Y024495D01*
X034743Y024539D01*
X034783Y024580D01*
X034827Y024618D01*
X034873Y024651D01*
X034923Y024679D01*
X034975Y024703D01*
X035029Y024723D01*
X035085Y024737D01*
X035141Y024746D01*
X035199Y024750D01*
X035256Y024749D01*
X035313Y024742D01*
X035369Y024730D01*
X035424Y024714D01*
X035477Y024692D01*
X035528Y024666D01*
X035576Y024635D01*
X035622Y024600D01*
X035664Y024560D01*
X035702Y024518D01*
X035736Y024471D01*
X035766Y024422D01*
X035791Y024371D01*
X035811Y024317D01*
X035827Y024262D01*
X035837Y024206D01*
X035842Y024149D01*
X035842Y024091D01*
X035837Y024034D01*
X035827Y023978D01*
X035811Y023923D01*
X035791Y023869D01*
X035766Y023818D01*
X035736Y023769D01*
X035702Y023722D01*
X035664Y023680D01*
X035622Y023640D01*
X035576Y023605D01*
X035528Y023574D01*
X035477Y023548D01*
X035424Y023526D01*
X035369Y023510D01*
X035313Y023498D01*
X035256Y023491D01*
X035199Y023490D01*
X035141Y023494D01*
X035085Y023503D01*
X035029Y023517D01*
X034975Y023537D01*
X034923Y023561D01*
X034873Y023589D01*
X034827Y023622D01*
X034783Y023660D01*
X034743Y023701D01*
X034707Y023745D01*
X034675Y023793D01*
X034647Y023843D01*
X034624Y023896D01*
X034606Y023950D01*
X034593Y024006D01*
X034586Y024063D01*
X034583Y024120D01*
X034583Y028120D02*
X034586Y028177D01*
X034593Y028234D01*
X034606Y028290D01*
X034624Y028344D01*
X034647Y028397D01*
X034675Y028447D01*
X034707Y028495D01*
X034743Y028539D01*
X034783Y028580D01*
X034827Y028618D01*
X034873Y028651D01*
X034923Y028679D01*
X034975Y028703D01*
X035029Y028723D01*
X035085Y028737D01*
X035141Y028746D01*
X035199Y028750D01*
X035256Y028749D01*
X035313Y028742D01*
X035369Y028730D01*
X035424Y028714D01*
X035477Y028692D01*
X035528Y028666D01*
X035576Y028635D01*
X035622Y028600D01*
X035664Y028560D01*
X035702Y028518D01*
X035736Y028471D01*
X035766Y028422D01*
X035791Y028371D01*
X035811Y028317D01*
X035827Y028262D01*
X035837Y028206D01*
X035842Y028149D01*
X035842Y028091D01*
X035837Y028034D01*
X035827Y027978D01*
X035811Y027923D01*
X035791Y027869D01*
X035766Y027818D01*
X035736Y027769D01*
X035702Y027722D01*
X035664Y027680D01*
X035622Y027640D01*
X035576Y027605D01*
X035528Y027574D01*
X035477Y027548D01*
X035424Y027526D01*
X035369Y027510D01*
X035313Y027498D01*
X035256Y027491D01*
X035199Y027490D01*
X035141Y027494D01*
X035085Y027503D01*
X035029Y027517D01*
X034975Y027537D01*
X034923Y027561D01*
X034873Y027589D01*
X034827Y027622D01*
X034783Y027660D01*
X034743Y027701D01*
X034707Y027745D01*
X034675Y027793D01*
X034647Y027843D01*
X034624Y027896D01*
X034606Y027950D01*
X034593Y028006D01*
X034586Y028063D01*
X034583Y028120D01*
X034583Y012120D02*
X034586Y012177D01*
X034593Y012234D01*
X034606Y012290D01*
X034624Y012344D01*
X034647Y012397D01*
X034675Y012447D01*
X034707Y012495D01*
X034743Y012539D01*
X034783Y012580D01*
X034827Y012618D01*
X034873Y012651D01*
X034923Y012679D01*
X034975Y012703D01*
X035029Y012723D01*
X035085Y012737D01*
X035141Y012746D01*
X035199Y012750D01*
X035256Y012749D01*
X035313Y012742D01*
X035369Y012730D01*
X035424Y012714D01*
X035477Y012692D01*
X035528Y012666D01*
X035576Y012635D01*
X035622Y012600D01*
X035664Y012560D01*
X035702Y012518D01*
X035736Y012471D01*
X035766Y012422D01*
X035791Y012371D01*
X035811Y012317D01*
X035827Y012262D01*
X035837Y012206D01*
X035842Y012149D01*
X035842Y012091D01*
X035837Y012034D01*
X035827Y011978D01*
X035811Y011923D01*
X035791Y011869D01*
X035766Y011818D01*
X035736Y011769D01*
X035702Y011722D01*
X035664Y011680D01*
X035622Y011640D01*
X035576Y011605D01*
X035528Y011574D01*
X035477Y011548D01*
X035424Y011526D01*
X035369Y011510D01*
X035313Y011498D01*
X035256Y011491D01*
X035199Y011490D01*
X035141Y011494D01*
X035085Y011503D01*
X035029Y011517D01*
X034975Y011537D01*
X034923Y011561D01*
X034873Y011589D01*
X034827Y011622D01*
X034783Y011660D01*
X034743Y011701D01*
X034707Y011745D01*
X034675Y011793D01*
X034647Y011843D01*
X034624Y011896D01*
X034606Y011950D01*
X034593Y012006D01*
X034586Y012063D01*
X034583Y012120D01*
X032583Y012120D02*
X032586Y012177D01*
X032593Y012234D01*
X032606Y012290D01*
X032624Y012344D01*
X032647Y012397D01*
X032675Y012447D01*
X032707Y012495D01*
X032743Y012539D01*
X032783Y012580D01*
X032827Y012618D01*
X032873Y012651D01*
X032923Y012679D01*
X032975Y012703D01*
X033029Y012723D01*
X033085Y012737D01*
X033141Y012746D01*
X033199Y012750D01*
X033256Y012749D01*
X033313Y012742D01*
X033369Y012730D01*
X033424Y012714D01*
X033477Y012692D01*
X033528Y012666D01*
X033576Y012635D01*
X033622Y012600D01*
X033664Y012560D01*
X033702Y012518D01*
X033736Y012471D01*
X033766Y012422D01*
X033791Y012371D01*
X033811Y012317D01*
X033827Y012262D01*
X033837Y012206D01*
X033842Y012149D01*
X033842Y012091D01*
X033837Y012034D01*
X033827Y011978D01*
X033811Y011923D01*
X033791Y011869D01*
X033766Y011818D01*
X033736Y011769D01*
X033702Y011722D01*
X033664Y011680D01*
X033622Y011640D01*
X033576Y011605D01*
X033528Y011574D01*
X033477Y011548D01*
X033424Y011526D01*
X033369Y011510D01*
X033313Y011498D01*
X033256Y011491D01*
X033199Y011490D01*
X033141Y011494D01*
X033085Y011503D01*
X033029Y011517D01*
X032975Y011537D01*
X032923Y011561D01*
X032873Y011589D01*
X032827Y011622D01*
X032783Y011660D01*
X032743Y011701D01*
X032707Y011745D01*
X032675Y011793D01*
X032647Y011843D01*
X032624Y011896D01*
X032606Y011950D01*
X032593Y012006D01*
X032586Y012063D01*
X032583Y012120D01*
X030583Y012120D02*
X030586Y012177D01*
X030593Y012234D01*
X030606Y012290D01*
X030624Y012344D01*
X030647Y012397D01*
X030675Y012447D01*
X030707Y012495D01*
X030743Y012539D01*
X030783Y012580D01*
X030827Y012618D01*
X030873Y012651D01*
X030923Y012679D01*
X030975Y012703D01*
X031029Y012723D01*
X031085Y012737D01*
X031141Y012746D01*
X031199Y012750D01*
X031256Y012749D01*
X031313Y012742D01*
X031369Y012730D01*
X031424Y012714D01*
X031477Y012692D01*
X031528Y012666D01*
X031576Y012635D01*
X031622Y012600D01*
X031664Y012560D01*
X031702Y012518D01*
X031736Y012471D01*
X031766Y012422D01*
X031791Y012371D01*
X031811Y012317D01*
X031827Y012262D01*
X031837Y012206D01*
X031842Y012149D01*
X031842Y012091D01*
X031837Y012034D01*
X031827Y011978D01*
X031811Y011923D01*
X031791Y011869D01*
X031766Y011818D01*
X031736Y011769D01*
X031702Y011722D01*
X031664Y011680D01*
X031622Y011640D01*
X031576Y011605D01*
X031528Y011574D01*
X031477Y011548D01*
X031424Y011526D01*
X031369Y011510D01*
X031313Y011498D01*
X031256Y011491D01*
X031199Y011490D01*
X031141Y011494D01*
X031085Y011503D01*
X031029Y011517D01*
X030975Y011537D01*
X030923Y011561D01*
X030873Y011589D01*
X030827Y011622D01*
X030783Y011660D01*
X030743Y011701D01*
X030707Y011745D01*
X030675Y011793D01*
X030647Y011843D01*
X030624Y011896D01*
X030606Y011950D01*
X030593Y012006D01*
X030586Y012063D01*
X030583Y012120D01*
X034583Y008120D02*
X034586Y008177D01*
X034593Y008234D01*
X034606Y008290D01*
X034624Y008344D01*
X034647Y008397D01*
X034675Y008447D01*
X034707Y008495D01*
X034743Y008539D01*
X034783Y008580D01*
X034827Y008618D01*
X034873Y008651D01*
X034923Y008679D01*
X034975Y008703D01*
X035029Y008723D01*
X035085Y008737D01*
X035141Y008746D01*
X035199Y008750D01*
X035256Y008749D01*
X035313Y008742D01*
X035369Y008730D01*
X035424Y008714D01*
X035477Y008692D01*
X035528Y008666D01*
X035576Y008635D01*
X035622Y008600D01*
X035664Y008560D01*
X035702Y008518D01*
X035736Y008471D01*
X035766Y008422D01*
X035791Y008371D01*
X035811Y008317D01*
X035827Y008262D01*
X035837Y008206D01*
X035842Y008149D01*
X035842Y008091D01*
X035837Y008034D01*
X035827Y007978D01*
X035811Y007923D01*
X035791Y007869D01*
X035766Y007818D01*
X035736Y007769D01*
X035702Y007722D01*
X035664Y007680D01*
X035622Y007640D01*
X035576Y007605D01*
X035528Y007574D01*
X035477Y007548D01*
X035424Y007526D01*
X035369Y007510D01*
X035313Y007498D01*
X035256Y007491D01*
X035199Y007490D01*
X035141Y007494D01*
X035085Y007503D01*
X035029Y007517D01*
X034975Y007537D01*
X034923Y007561D01*
X034873Y007589D01*
X034827Y007622D01*
X034783Y007660D01*
X034743Y007701D01*
X034707Y007745D01*
X034675Y007793D01*
X034647Y007843D01*
X034624Y007896D01*
X034606Y007950D01*
X034593Y008006D01*
X034586Y008063D01*
X034583Y008120D01*
D11*
X024536Y022072D02*
X024404Y022072D01*
X024272Y022204D01*
X024272Y022863D01*
X024667Y022863D01*
X024799Y022731D01*
X024799Y022468D01*
X024667Y022336D01*
X024272Y022336D01*
X024007Y022336D02*
X023612Y022336D01*
X023480Y022468D01*
X023612Y022599D01*
X023876Y022599D01*
X024007Y022731D01*
X023876Y022863D01*
X023480Y022863D01*
X023215Y022863D02*
X022952Y022863D01*
X023084Y022995D02*
X023084Y022468D01*
X022952Y022336D01*
X022688Y022468D02*
X022556Y022599D01*
X022160Y022599D01*
X022160Y022731D02*
X022160Y022336D01*
X022556Y022336D01*
X022688Y022468D01*
X022556Y022863D02*
X022292Y022863D01*
X022160Y022731D01*
X021896Y022863D02*
X021764Y022863D01*
X021764Y022336D01*
X021896Y022336D02*
X021632Y022336D01*
X021368Y022336D02*
X021368Y022863D01*
X021368Y022599D02*
X021104Y022863D01*
X020972Y022863D01*
X020708Y022995D02*
X020708Y022468D01*
X020576Y022336D01*
X020313Y022336D01*
X020181Y022468D01*
X020313Y022599D02*
X020313Y022863D01*
X020576Y022863D01*
X020576Y022599D01*
X020313Y022599D01*
X020181Y022731D01*
X020181Y022995D01*
X020313Y023126D01*
X020576Y023126D01*
X020708Y022995D01*
X020577Y023615D02*
X020577Y024011D01*
X020709Y024142D01*
X021104Y024142D01*
X021104Y023615D01*
X021369Y023879D02*
X021896Y023879D01*
X021896Y023747D02*
X021896Y024011D01*
X021764Y024142D01*
X021500Y024142D01*
X021369Y024011D01*
X021369Y023879D01*
X021500Y023615D02*
X021764Y023615D01*
X021896Y023747D01*
X022160Y023615D02*
X022160Y024011D01*
X022292Y024142D01*
X022556Y024142D01*
X022688Y024011D01*
X022952Y024011D02*
X022952Y023747D01*
X023084Y023615D01*
X023479Y023615D01*
X023479Y023352D02*
X023479Y024142D01*
X023084Y024142D01*
X022952Y024011D01*
X022688Y024406D02*
X022688Y023615D01*
X023744Y023879D02*
X024271Y023879D01*
X024271Y023747D02*
X024271Y024011D01*
X024139Y024142D01*
X023876Y024142D01*
X023744Y024011D01*
X023744Y023879D01*
X023876Y023615D02*
X024139Y023615D01*
X024271Y023747D01*
X024536Y023615D02*
X024667Y023747D01*
X024667Y024274D01*
X024536Y024142D02*
X024799Y024142D01*
X025064Y024274D02*
X025196Y024406D01*
X025459Y024406D01*
X025591Y024274D01*
X025591Y024142D01*
X025459Y024011D01*
X025196Y024011D01*
X025064Y023879D01*
X025064Y023747D01*
X025196Y023615D01*
X025459Y023615D01*
X025591Y023747D01*
X025459Y022863D02*
X025064Y022863D01*
X025196Y022599D02*
X025064Y022468D01*
X025196Y022336D01*
X025591Y022336D01*
X025459Y022599D02*
X025591Y022731D01*
X025459Y022863D01*
X025459Y022599D02*
X025196Y022599D01*
X024965Y024895D02*
X025493Y024895D01*
X025493Y025686D01*
X024701Y025290D02*
X024701Y025027D01*
X024569Y024895D01*
X024305Y024895D01*
X024174Y025027D01*
X024174Y025290D01*
X024305Y025422D01*
X024569Y025422D01*
X024701Y025290D01*
X023909Y025290D02*
X023909Y025027D01*
X023777Y024895D01*
X023382Y024895D01*
X023382Y024763D02*
X023382Y025422D01*
X023777Y025422D01*
X023909Y025290D01*
X023645Y024631D02*
X023514Y024631D01*
X023382Y024763D01*
X023117Y024895D02*
X022853Y024895D01*
X022985Y024895D02*
X022985Y025422D01*
X023117Y025422D01*
X022985Y025686D02*
X022985Y025817D01*
X022457Y025422D02*
X022589Y025290D01*
X022589Y025027D01*
X022457Y024895D01*
X022062Y024895D01*
X021797Y024895D02*
X021797Y025422D01*
X021534Y025686D01*
X021270Y025422D01*
X021270Y024895D01*
X021005Y024895D02*
X021005Y025422D01*
X020610Y025422D01*
X020478Y025290D01*
X020478Y024895D01*
X020214Y025027D02*
X020082Y025158D01*
X019686Y025158D01*
X019686Y025290D02*
X019686Y024895D01*
X020082Y024895D01*
X020214Y025027D01*
X020082Y025422D02*
X019818Y025422D01*
X019686Y025290D01*
X019422Y024895D02*
X019158Y024895D01*
X019290Y024895D02*
X019290Y025686D01*
X019422Y025686D01*
X018894Y025422D02*
X018894Y025027D01*
X018762Y024895D01*
X018367Y024895D01*
X018367Y024763D02*
X018498Y024631D01*
X018630Y024631D01*
X018367Y024763D02*
X018367Y025422D01*
X018102Y025422D02*
X017575Y025422D01*
X018102Y024895D01*
X017575Y024895D01*
X017310Y025027D02*
X017310Y025290D01*
X017178Y025422D01*
X016915Y025422D01*
X016783Y025290D01*
X016783Y025158D01*
X017310Y025158D01*
X017310Y025027D02*
X017178Y024895D01*
X016915Y024895D01*
X016518Y024895D02*
X016518Y025422D01*
X016255Y025422D02*
X016518Y025158D01*
X016255Y025422D02*
X016123Y025422D01*
X015066Y025686D02*
X015066Y024895D01*
X015066Y025158D02*
X014671Y025158D01*
X014539Y025290D01*
X014539Y025554D01*
X014671Y025686D01*
X015066Y025686D01*
X014803Y025158D02*
X014539Y024895D01*
X014275Y025027D02*
X014275Y025290D01*
X014143Y025422D01*
X013879Y025422D01*
X013748Y025290D01*
X013748Y025158D01*
X014275Y025158D01*
X014275Y025027D02*
X014143Y024895D01*
X013879Y024895D01*
X013582Y024406D02*
X013582Y023615D01*
X013845Y023615D02*
X013318Y023615D01*
X013053Y024011D02*
X012526Y024011D01*
X012658Y024406D02*
X012658Y023615D01*
X013053Y024011D02*
X012658Y024406D01*
X012691Y024895D02*
X012164Y024895D01*
X012427Y024895D02*
X012427Y025686D01*
X012691Y025422D01*
X012956Y025422D02*
X013219Y024895D01*
X013483Y025422D01*
X013582Y024406D02*
X013845Y024142D01*
X014110Y024274D02*
X014110Y023747D01*
X014242Y023615D01*
X014505Y023615D01*
X014637Y023747D01*
X014110Y024274D01*
X014242Y024406D01*
X014505Y024406D01*
X014637Y024274D01*
X014637Y023747D01*
X014902Y023615D02*
X015429Y023615D01*
X014902Y024142D01*
X014902Y024274D01*
X015034Y024406D01*
X015297Y024406D01*
X015429Y024274D01*
X016485Y024142D02*
X016617Y024142D01*
X016881Y023879D01*
X016881Y024142D02*
X016881Y023615D01*
X017145Y023615D02*
X017409Y023615D01*
X017277Y023615D02*
X017277Y024142D01*
X017409Y024142D01*
X017673Y024011D02*
X017673Y023615D01*
X018069Y023615D01*
X018200Y023747D01*
X018069Y023879D01*
X017673Y023879D01*
X017673Y024011D02*
X017805Y024142D01*
X018069Y024142D01*
X018465Y024142D02*
X018728Y024142D01*
X018596Y024274D02*
X018596Y023747D01*
X018465Y023615D01*
X018993Y023747D02*
X019125Y023615D01*
X019388Y023615D01*
X019520Y023747D01*
X019388Y024011D02*
X019125Y024011D01*
X018993Y023879D01*
X018993Y023747D01*
X019388Y024011D02*
X019520Y024142D01*
X019520Y024274D01*
X019388Y024406D01*
X019125Y024406D01*
X018993Y024274D01*
X017673Y023258D02*
X017673Y023126D01*
X017673Y022863D02*
X017673Y022336D01*
X017804Y022336D02*
X017541Y022336D01*
X017145Y022468D02*
X017013Y022336D01*
X017145Y022468D02*
X017145Y022995D01*
X017276Y022863D02*
X017013Y022863D01*
X016749Y022468D02*
X016617Y022468D01*
X016617Y022336D01*
X016749Y022336D01*
X016749Y022468D01*
X016353Y022468D02*
X016221Y022336D01*
X015957Y022336D01*
X015826Y022468D01*
X015826Y022731D01*
X015957Y022863D01*
X016221Y022863D01*
X016353Y022731D01*
X016353Y022468D01*
X015561Y022599D02*
X015297Y022863D01*
X015166Y022863D01*
X014901Y022731D02*
X014901Y022468D01*
X014769Y022336D01*
X014374Y022336D01*
X014374Y022204D02*
X014374Y022863D01*
X014769Y022863D01*
X014901Y022731D01*
X014374Y022204D02*
X014506Y022072D01*
X014637Y022072D01*
X015561Y022336D02*
X015561Y022863D01*
X017277Y024406D02*
X017277Y024538D01*
X017673Y022863D02*
X017804Y022863D01*
X018069Y022863D02*
X018464Y022599D01*
X018069Y022336D01*
X018464Y022336D02*
X018464Y023126D01*
X018729Y022863D02*
X019124Y022599D01*
X018729Y022336D01*
X019124Y022336D02*
X019124Y023126D01*
X019389Y022731D02*
X019389Y022336D01*
X019784Y022336D01*
X019916Y022468D01*
X019784Y022599D01*
X019389Y022599D01*
X019389Y022731D02*
X019521Y022863D01*
X019784Y022863D01*
X021764Y023126D02*
X021764Y023258D01*
X021797Y025290D02*
X021270Y025290D01*
X022062Y025422D02*
X022457Y025422D01*
D12*
X021923Y021775D02*
X021923Y021698D01*
X021923Y021545D02*
X021923Y021238D01*
X022000Y021238D02*
X021846Y021238D01*
X021616Y021315D02*
X021616Y021622D01*
X021693Y021545D02*
X021540Y021545D01*
X021386Y021468D02*
X021309Y021545D01*
X021156Y021545D01*
X021079Y021468D01*
X021079Y021238D01*
X020926Y021315D02*
X020926Y021545D01*
X020926Y021315D02*
X020849Y021238D01*
X020619Y021238D01*
X020619Y021545D01*
X020465Y021545D02*
X020235Y021545D01*
X020159Y021468D01*
X020159Y021315D01*
X020235Y021238D01*
X020465Y021238D01*
X020465Y021698D01*
X020005Y021315D02*
X019928Y021315D01*
X019928Y021238D01*
X020005Y021238D01*
X020005Y021315D01*
X019775Y021315D02*
X019698Y021238D01*
X019468Y021238D01*
X019315Y021315D02*
X019238Y021238D01*
X019084Y021238D01*
X019008Y021315D01*
X019008Y021468D01*
X019084Y021545D01*
X019238Y021545D01*
X019315Y021468D01*
X019315Y021315D01*
X019468Y021545D02*
X019698Y021545D01*
X019775Y021468D01*
X019775Y021315D01*
X018854Y021238D02*
X018854Y021545D01*
X018778Y021545D01*
X018701Y021468D01*
X018624Y021545D01*
X018547Y021468D01*
X018547Y021238D01*
X018394Y021238D02*
X018087Y021698D01*
X017934Y021468D02*
X017857Y021545D01*
X017627Y021545D01*
X017703Y021392D02*
X017857Y021392D01*
X017934Y021468D01*
X017934Y021238D02*
X017703Y021238D01*
X017627Y021315D01*
X017703Y021392D01*
X017473Y021468D02*
X017473Y021315D01*
X017396Y021238D01*
X017166Y021238D01*
X017166Y021161D02*
X017166Y021545D01*
X017396Y021545D01*
X017473Y021468D01*
X017320Y021085D02*
X017243Y021085D01*
X017166Y021161D01*
X017013Y021238D02*
X016783Y021238D01*
X016706Y021315D01*
X016783Y021392D01*
X016936Y021392D01*
X017013Y021468D01*
X016936Y021545D01*
X016706Y021545D01*
X016552Y021545D02*
X016399Y021545D01*
X016476Y021622D02*
X016476Y021315D01*
X016399Y021238D01*
X016246Y021315D02*
X016169Y021392D01*
X015939Y021392D01*
X015939Y021468D02*
X015939Y021238D01*
X016169Y021238D01*
X016246Y021315D01*
X016169Y021545D02*
X016015Y021545D01*
X015939Y021468D01*
X015785Y021545D02*
X015709Y021545D01*
X015709Y021238D01*
X015785Y021238D02*
X015632Y021238D01*
X015478Y021238D02*
X015478Y021545D01*
X015325Y021545D02*
X015248Y021545D01*
X015325Y021545D02*
X015478Y021392D01*
X015709Y021698D02*
X015709Y021775D01*
X015095Y021238D02*
X014788Y021698D01*
X014634Y021698D02*
X014558Y021698D01*
X014558Y021238D01*
X014634Y021238D02*
X014481Y021238D01*
X014327Y021315D02*
X014251Y021238D01*
X014097Y021238D01*
X014021Y021315D01*
X014021Y021468D01*
X014097Y021545D01*
X014251Y021545D01*
X014327Y021468D01*
X014327Y021315D01*
X013867Y021315D02*
X013867Y021468D01*
X013790Y021545D01*
X013560Y021545D01*
X013560Y021161D01*
X013637Y021085D01*
X013714Y021085D01*
X013790Y021238D02*
X013560Y021238D01*
X013407Y021238D02*
X013253Y021238D01*
X013330Y021238D02*
X013330Y021545D01*
X013407Y021545D01*
X013330Y021698D02*
X013330Y021775D01*
X013023Y021545D02*
X012793Y021545D01*
X013023Y021545D02*
X013100Y021468D01*
X013100Y021315D01*
X013023Y021238D01*
X012793Y021238D01*
X012639Y021315D02*
X012563Y021392D01*
X012333Y021392D01*
X012333Y021468D02*
X012333Y021238D01*
X012563Y021238D01*
X012639Y021315D01*
X012563Y021545D02*
X012409Y021545D01*
X012333Y021468D01*
X012179Y021545D02*
X011949Y021545D01*
X011872Y021468D01*
X011872Y021238D01*
X011719Y021315D02*
X011642Y021392D01*
X011412Y021392D01*
X011412Y021468D02*
X011412Y021238D01*
X011642Y021238D01*
X011719Y021315D01*
X011642Y021545D02*
X011489Y021545D01*
X011412Y021468D01*
X011258Y021238D02*
X011105Y021238D01*
X011182Y021238D02*
X011182Y021698D01*
X011258Y021698D01*
X010952Y021545D02*
X010952Y021315D01*
X010875Y021238D01*
X010645Y021238D01*
X010645Y021161D02*
X010721Y021085D01*
X010798Y021085D01*
X010645Y021161D02*
X010645Y021545D01*
X010491Y021545D02*
X010184Y021545D01*
X010491Y021238D01*
X010184Y021238D01*
X010031Y021315D02*
X010031Y021468D01*
X009954Y021545D01*
X009801Y021545D01*
X009724Y021468D01*
X009724Y021392D01*
X010031Y021392D01*
X010031Y021315D02*
X009954Y021238D01*
X009801Y021238D01*
X009570Y021238D02*
X009570Y021545D01*
X009417Y021545D02*
X009340Y021545D01*
X009417Y021545D02*
X009570Y021392D01*
X012179Y021238D02*
X012179Y021545D01*
X013790Y021238D02*
X013867Y021315D01*
X018701Y021238D02*
X018701Y021468D01*
X021386Y021698D02*
X021386Y021238D01*
X021540Y021238D02*
X021616Y021315D01*
X021923Y021545D02*
X022000Y021545D01*
X022153Y021545D02*
X022384Y021545D01*
X022460Y021468D01*
X022460Y021315D01*
X022384Y021238D01*
X022153Y021238D01*
X022153Y021161D02*
X022153Y021545D01*
X022153Y021161D02*
X022230Y021085D01*
X022307Y021085D01*
X022921Y021238D02*
X022614Y021698D01*
X023074Y021698D02*
X023381Y021238D01*
X023534Y021238D02*
X023611Y021238D01*
X023611Y021315D01*
X023534Y021315D01*
X023534Y021238D01*
X023534Y021468D02*
X023611Y021468D01*
X023611Y021545D01*
X023534Y021545D01*
X023534Y021468D01*
X023765Y021545D02*
X023995Y021545D01*
X024071Y021468D01*
X023995Y021392D01*
X023841Y021392D01*
X023765Y021315D01*
X023841Y021238D01*
X024071Y021238D01*
X024225Y021315D02*
X024302Y021238D01*
X024532Y021238D01*
X024532Y021085D02*
X024532Y021545D01*
X024302Y021545D01*
X024225Y021468D01*
X024225Y021315D01*
X024685Y021238D02*
X024762Y021315D01*
X024762Y021622D01*
X024839Y021545D02*
X024685Y021545D01*
X024992Y021545D02*
X025146Y021545D01*
X025069Y021622D02*
X025069Y021315D01*
X024992Y021238D01*
X025299Y021238D02*
X025299Y021468D01*
X025376Y021545D01*
X025529Y021545D01*
X025606Y021468D01*
X025606Y021698D02*
X025606Y021238D01*
X014893Y011483D02*
X014433Y011483D01*
X014433Y011636D02*
X014433Y011329D01*
X014509Y011176D02*
X014663Y011176D01*
X014663Y011022D01*
X014816Y010869D02*
X014509Y010869D01*
X014433Y010946D01*
X014433Y011099D01*
X014509Y011176D01*
X014739Y011329D02*
X014893Y011483D01*
X014816Y011176D02*
X014893Y011099D01*
X014893Y010946D01*
X014816Y010869D01*
X014739Y010715D02*
X014433Y010715D01*
X014663Y010715D02*
X014663Y010408D01*
X014739Y010408D02*
X014433Y010408D01*
X014433Y010102D02*
X014893Y010102D01*
X014893Y010255D02*
X014893Y009948D01*
X014893Y009795D02*
X014893Y009641D01*
X014893Y009718D02*
X014509Y009718D01*
X014433Y009641D01*
X014433Y009564D01*
X014509Y009488D01*
X013893Y009465D02*
X013586Y009465D01*
X013433Y009312D01*
X013586Y009159D01*
X013893Y009159D01*
X013816Y009619D02*
X013509Y009619D01*
X013433Y009696D01*
X013433Y009849D01*
X013509Y009926D01*
X013509Y010079D02*
X013433Y010156D01*
X013433Y010309D01*
X013509Y010386D01*
X013509Y010079D02*
X013816Y010079D01*
X013893Y010156D01*
X013893Y010309D01*
X013816Y010386D01*
X013816Y009926D02*
X013893Y009849D01*
X013893Y009696D01*
X013816Y009619D01*
X012893Y009619D02*
X012433Y009926D01*
X012893Y009926D01*
X012893Y010079D02*
X012893Y010309D01*
X012816Y010386D01*
X012509Y010386D01*
X012433Y010309D01*
X012433Y010079D01*
X012893Y010079D01*
X012893Y009619D02*
X012433Y009619D01*
X012509Y009465D02*
X012663Y009465D01*
X012663Y009312D01*
X012816Y009465D02*
X012893Y009389D01*
X012893Y009235D01*
X012816Y009159D01*
X012509Y009159D01*
X012433Y009235D01*
X012433Y009389D01*
X012509Y009465D01*
X011893Y009465D02*
X011893Y009159D01*
X011893Y009312D02*
X011433Y009312D01*
X011509Y009619D02*
X011433Y009696D01*
X011433Y009849D01*
X011509Y009926D01*
X011433Y010079D02*
X011893Y010079D01*
X011816Y009926D02*
X011893Y009849D01*
X011893Y009696D01*
X011816Y009619D01*
X011509Y009619D01*
X011586Y010079D02*
X011893Y010386D01*
X011663Y010156D02*
X011433Y010386D01*
X010893Y010309D02*
X010816Y010386D01*
X010509Y010386D01*
X010433Y010309D01*
X010433Y010156D01*
X010509Y010079D01*
X010816Y010079D01*
X010893Y010156D01*
X010893Y010309D01*
X010816Y009926D02*
X010893Y009849D01*
X010893Y009619D01*
X010433Y009619D01*
X010433Y009849D01*
X010509Y009926D01*
X010816Y009926D01*
X010893Y009465D02*
X010893Y009159D01*
X010893Y009312D02*
X010433Y009312D01*
X009893Y009312D02*
X009893Y009619D01*
X009893Y009772D02*
X009893Y010003D01*
X009816Y010079D01*
X009509Y010079D01*
X009433Y010003D01*
X009433Y009772D01*
X009893Y009772D01*
X009893Y009465D02*
X009433Y009465D01*
X008893Y009465D02*
X008893Y009159D01*
X008893Y009312D02*
X008433Y009312D01*
X008433Y009619D02*
X008893Y009619D01*
X008739Y009772D01*
X008893Y009926D01*
X008433Y009926D01*
X008509Y010079D02*
X008433Y010156D01*
X008433Y010309D01*
X008509Y010386D01*
X008586Y010386D01*
X008663Y010309D01*
X008663Y010156D01*
X008739Y010079D01*
X008816Y010079D01*
X008893Y010156D01*
X008893Y010309D01*
X008816Y010386D01*
X009433Y010386D02*
X009433Y010233D01*
X009433Y010309D02*
X009893Y010309D01*
X009893Y010233D02*
X009893Y010386D01*
X014739Y010408D02*
X014893Y010562D01*
X014739Y010715D01*
D13*
X014213Y010620D02*
X008213Y010620D01*
X008213Y011620D01*
X014213Y011620D01*
X014213Y010620D01*
X013713Y011820D02*
X014013Y012120D01*
X013413Y012120D01*
X013713Y011820D01*
X020265Y014962D02*
X020580Y014962D01*
X020580Y015198D02*
X020265Y015198D01*
X022225Y016872D02*
X022540Y016872D01*
X022540Y017108D02*
X022225Y017108D01*
X022664Y017742D02*
X022664Y018057D01*
X022901Y018057D02*
X022901Y017742D01*
X022091Y017832D02*
X022091Y018147D01*
X021854Y018147D02*
X021854Y017832D01*
X022645Y016378D02*
X022960Y016378D01*
X022960Y016142D02*
X022645Y016142D01*
X023305Y015118D02*
X023620Y015118D01*
X023620Y014882D02*
X023305Y014882D01*
X025165Y015782D02*
X025480Y015782D01*
X025480Y016018D02*
X025165Y016018D01*
X024881Y019742D02*
X024881Y020057D01*
X024644Y020057D02*
X024644Y019742D01*
D14*
X013901Y015489D02*
X013901Y015365D01*
X013839Y015303D01*
X013778Y015303D01*
X013716Y015365D01*
X013716Y015489D01*
X013654Y015550D01*
X013592Y015550D01*
X013531Y015489D01*
X013531Y015365D01*
X013592Y015303D01*
X013592Y015182D02*
X013531Y015120D01*
X013531Y014997D01*
X013592Y014935D01*
X013839Y014935D01*
X013901Y014997D01*
X013901Y015120D01*
X013839Y015182D01*
X013901Y015489D02*
X013839Y015550D01*
X013469Y014814D02*
X013469Y014567D01*
X013531Y014445D02*
X013901Y014445D01*
X013716Y014445D02*
X013716Y014198D01*
X013654Y014077D02*
X013592Y014077D01*
X013531Y014015D01*
X013531Y013892D01*
X013592Y013830D01*
X013531Y013709D02*
X013778Y013709D01*
X013901Y013585D01*
X013778Y013462D01*
X013531Y013462D01*
X013531Y013340D02*
X013531Y013094D01*
X013901Y013094D01*
X013901Y012972D02*
X013901Y012725D01*
X013531Y012725D01*
X013716Y012725D02*
X013716Y012849D01*
X013716Y013462D02*
X013716Y013709D01*
X013778Y013830D02*
X013716Y013892D01*
X013716Y014015D01*
X013654Y014077D01*
X013531Y014198D02*
X013901Y014198D01*
X013839Y014077D02*
X013901Y014015D01*
X013901Y013892D01*
X013839Y013830D01*
X013778Y013830D01*
X012901Y013279D02*
X012839Y013340D01*
X012592Y013340D01*
X012531Y013279D01*
X012531Y013155D01*
X012592Y013094D01*
X012839Y013094D01*
X012901Y013155D01*
X012901Y013279D01*
X012839Y012972D02*
X012901Y012910D01*
X012901Y012787D01*
X012839Y012725D01*
X012778Y012725D01*
X012716Y012787D01*
X012716Y012910D01*
X012654Y012972D01*
X012592Y012972D01*
X012531Y012910D01*
X012531Y012787D01*
X012592Y012725D01*
X011901Y012787D02*
X011839Y012725D01*
X011778Y012725D01*
X011716Y012787D01*
X011716Y012910D01*
X011654Y012972D01*
X011592Y012972D01*
X011531Y012910D01*
X011531Y012787D01*
X011592Y012725D01*
X011901Y012787D02*
X011901Y012910D01*
X011839Y012972D01*
X011901Y013094D02*
X011901Y013217D01*
X011901Y013155D02*
X011531Y013155D01*
X011531Y013094D02*
X011531Y013217D01*
X010901Y013340D02*
X010654Y013094D01*
X010716Y013155D02*
X010531Y013340D01*
X010531Y013094D02*
X010901Y013094D01*
X010839Y012972D02*
X010901Y012910D01*
X010901Y012787D01*
X010839Y012725D01*
X010592Y012725D01*
X010531Y012787D01*
X010531Y012910D01*
X010592Y012972D01*
X009901Y012972D02*
X009901Y012725D01*
X009531Y012725D01*
X009716Y012725D02*
X009716Y012849D01*
X009654Y013094D02*
X009654Y013279D01*
X009716Y013340D01*
X009839Y013340D01*
X009901Y013279D01*
X009901Y013094D01*
X009531Y013094D01*
X009592Y013462D02*
X009531Y013524D01*
X009531Y013647D01*
X009592Y013709D01*
X009716Y013709D01*
X009716Y013585D01*
X009839Y013462D02*
X009592Y013462D01*
X009839Y013462D02*
X009901Y013524D01*
X009901Y013647D01*
X009839Y013709D01*
X009778Y013830D02*
X009531Y013830D01*
X009716Y013830D02*
X009716Y014077D01*
X009778Y014077D02*
X009531Y014077D01*
X009469Y014198D02*
X009469Y014445D01*
X009531Y014567D02*
X009901Y014567D01*
X009901Y014752D01*
X009839Y014814D01*
X009716Y014814D01*
X009654Y014752D01*
X009654Y014567D01*
X009654Y014690D02*
X009531Y014814D01*
X009592Y014935D02*
X009531Y014997D01*
X009531Y015120D01*
X009592Y015182D01*
X009654Y015182D01*
X009716Y015120D01*
X009716Y014997D01*
X009778Y014935D01*
X009839Y014935D01*
X009901Y014997D01*
X009901Y015120D01*
X009839Y015182D01*
X009901Y015303D02*
X009901Y015550D01*
X009901Y015427D02*
X009531Y015427D01*
X008901Y015489D02*
X008901Y015365D01*
X008839Y015303D01*
X008901Y015182D02*
X008654Y015182D01*
X008531Y015059D01*
X008654Y014935D01*
X008901Y014935D01*
X008901Y014690D02*
X008531Y014690D01*
X008531Y014567D02*
X008531Y014814D01*
X008778Y014567D02*
X008901Y014690D01*
X008469Y014445D02*
X008469Y014198D01*
X008531Y014077D02*
X008778Y014077D01*
X008901Y013954D01*
X008778Y013830D01*
X008531Y013830D01*
X008592Y013709D02*
X008716Y013709D01*
X008716Y013585D01*
X008839Y013462D02*
X008592Y013462D01*
X008531Y013524D01*
X008531Y013647D01*
X008592Y013709D01*
X008716Y013830D02*
X008716Y014077D01*
X008839Y013709D02*
X008901Y013647D01*
X008901Y013524D01*
X008839Y013462D01*
X008839Y013340D02*
X008716Y013340D01*
X008654Y013279D01*
X008654Y013094D01*
X008531Y013094D02*
X008901Y013094D01*
X008901Y013279D01*
X008839Y013340D01*
X008901Y012972D02*
X008901Y012725D01*
X008531Y012725D01*
X008716Y012725D02*
X008716Y012849D01*
X009778Y013830D02*
X009901Y013954D01*
X009778Y014077D01*
X008901Y015489D02*
X008839Y015550D01*
X008778Y015550D01*
X008531Y015303D01*
X008531Y015550D01*
D15*
X020298Y015471D02*
X020349Y015446D01*
X020399Y015396D01*
X020324Y015396D01*
X020298Y015371D01*
X020298Y015346D01*
X020324Y015321D01*
X020374Y015321D01*
X020399Y015346D01*
X020399Y015396D01*
X020446Y015321D02*
X020546Y015321D01*
X020496Y015321D02*
X020496Y015471D01*
X020546Y015421D01*
X020593Y015446D02*
X020618Y015471D01*
X020668Y015471D01*
X020693Y015446D01*
X020693Y015346D01*
X020668Y015321D01*
X020618Y015321D01*
X020593Y015346D01*
X021868Y016571D02*
X021969Y016571D01*
X021868Y016671D01*
X021868Y016696D01*
X021894Y016721D01*
X021944Y016721D01*
X021969Y016696D01*
X022016Y016696D02*
X022041Y016721D01*
X022091Y016721D01*
X022116Y016696D01*
X022163Y016696D02*
X022188Y016721D01*
X022238Y016721D01*
X022263Y016696D01*
X022263Y016596D01*
X022238Y016571D01*
X022188Y016571D01*
X022163Y016596D01*
X022116Y016571D02*
X022016Y016671D01*
X022016Y016696D01*
X022016Y016571D02*
X022116Y016571D01*
X022678Y016576D02*
X022779Y016576D01*
X022704Y016651D01*
X022704Y016501D01*
X022826Y016501D02*
X022926Y016501D01*
X022826Y016601D01*
X022826Y016626D01*
X022851Y016651D01*
X022901Y016651D01*
X022926Y016626D01*
X022973Y016626D02*
X022998Y016651D01*
X023048Y016651D01*
X023073Y016626D01*
X023073Y016526D01*
X023048Y016501D01*
X022998Y016501D01*
X022973Y016526D01*
X023109Y017689D02*
X023084Y017714D01*
X023084Y017764D01*
X023109Y017789D01*
X023084Y017836D02*
X023184Y017936D01*
X023209Y017936D01*
X023234Y017911D01*
X023234Y017861D01*
X023209Y017836D01*
X023209Y017789D02*
X023234Y017764D01*
X023234Y017714D01*
X023209Y017689D01*
X023109Y017689D01*
X023084Y017836D02*
X023084Y017936D01*
X023084Y017984D02*
X023084Y018084D01*
X023084Y018034D02*
X023234Y018034D01*
X023184Y017984D01*
X021674Y017979D02*
X021674Y018029D01*
X021649Y018054D01*
X021549Y017954D01*
X021524Y017979D01*
X021524Y018029D01*
X021549Y018054D01*
X021649Y018054D01*
X021674Y017979D02*
X021649Y017954D01*
X021549Y017954D01*
X021524Y017906D02*
X021524Y017806D01*
X021624Y017906D01*
X021649Y017906D01*
X021674Y017881D01*
X021674Y017831D01*
X021649Y017806D01*
X021649Y017759D02*
X021674Y017734D01*
X021674Y017684D01*
X021649Y017659D01*
X021549Y017659D01*
X021524Y017684D01*
X021524Y017734D01*
X021549Y017759D01*
X025004Y019654D02*
X025004Y019704D01*
X025029Y019729D01*
X025004Y019776D02*
X025004Y019876D01*
X025004Y019924D02*
X025029Y019924D01*
X025129Y020024D01*
X025154Y020024D01*
X025154Y019924D01*
X025154Y019826D02*
X025004Y019826D01*
X025104Y019776D02*
X025154Y019826D01*
X025129Y019729D02*
X025154Y019704D01*
X025154Y019654D01*
X025129Y019629D01*
X025029Y019629D01*
X025004Y019654D01*
X025114Y015659D02*
X025089Y015634D01*
X025089Y015609D01*
X025114Y015584D01*
X025164Y015584D01*
X025189Y015609D01*
X025189Y015634D01*
X025164Y015659D01*
X025114Y015659D01*
X025114Y015584D02*
X025089Y015559D01*
X025089Y015533D01*
X025114Y015508D01*
X025164Y015508D01*
X025189Y015533D01*
X025189Y015559D01*
X025164Y015584D01*
X025237Y015508D02*
X025337Y015508D01*
X025287Y015508D02*
X025287Y015659D01*
X025337Y015609D01*
X025384Y015634D02*
X025409Y015659D01*
X025459Y015659D01*
X025484Y015634D01*
X025484Y015533D01*
X025459Y015508D01*
X025409Y015508D01*
X025384Y015533D01*
X023823Y014646D02*
X023823Y014546D01*
X023798Y014521D01*
X023748Y014521D01*
X023723Y014546D01*
X023676Y014521D02*
X023576Y014521D01*
X023626Y014521D02*
X023626Y014671D01*
X023676Y014621D01*
X023723Y014646D02*
X023748Y014671D01*
X023798Y014671D01*
X023823Y014646D01*
X023529Y014671D02*
X023529Y014596D01*
X023479Y014621D01*
X023454Y014621D01*
X023428Y014596D01*
X023428Y014546D01*
X023454Y014521D01*
X023504Y014521D01*
X023529Y014546D01*
X023529Y014671D02*
X023428Y014671D01*
M02*
