%
M48
M72
T01C0.0100
T02C0.0130
T03C0.0236
T04C0.0276
T05C0.0354
T06C0.0394
T07C0.0433
T08C0.1260
%
T01
X7693Y11510
X8083Y11810
X8533Y12980
X8563Y13310
X9908Y13344
X10153Y13220
X10333Y13220
X10513Y13220
X10963Y13880
X11233Y14720
X11413Y14750
X12339Y14722
X12535Y14722
X12732Y14722
X12929Y14722
X13093Y13400
X14602Y14525
X14799Y14525
X14996Y14525
X15193Y14525
X15763Y14600
X16093Y14600
X16571Y15116
X16374Y15706
X16374Y16002
X17053Y16400
X16965Y16691
X16965Y16887
X16993Y17330
X16993Y17510
X17260Y17970
X17260Y18167
X17260Y18364
X17949Y17872
X17949Y17675
X17949Y17478
X18146Y17576
X17949Y17084
X17949Y16887
X17949Y16691
X17863Y15860
X18283Y15620
X17953Y15260
X18313Y15020
X19228Y14131
X19425Y13935
X19425Y14328
X20016Y15411
X20016Y15805
X20016Y16198
X20409Y16198
X20409Y15805
X20803Y15805
X20803Y16198
X21197Y16198
X21591Y16198
X21984Y15805
X21591Y15411
X22378Y15411
X22772Y15805
X23165Y15411
X23559Y15411
X23559Y15805
X23559Y16198
X23559Y16592
X23165Y16592
X23165Y16986
X23165Y17380
X22772Y17380
X22378Y17380
X21984Y17380
X21591Y17380
X21197Y17380
X20803Y17380
X20803Y16986
X20409Y16986
X20016Y16592
X19622Y16592
X19228Y16986
X20409Y17773
X20409Y18167
X20409Y18561
X20016Y18561
X20016Y18954
X20409Y18954
X20803Y18954
X20803Y18561
X21197Y18561
X21197Y18954
X21591Y18954
X21984Y18954
X21984Y18561
X21591Y18561
X21591Y18167
X21591Y17773
X21984Y17773
X22378Y17773
X22772Y17773
X23165Y17773
X23165Y18167
X23559Y18167
X23559Y18561
X23559Y18954
X23165Y18954
X22772Y18954
X22772Y18561
X22378Y18561
X22378Y18954
X22378Y19348
X22772Y19348
X23165Y19348
X23165Y19742
X22772Y19742
X22378Y19742
X22378Y20135
X21984Y19742
X21591Y19742
X21591Y20135
X21197Y19742
X20803Y19742
X20803Y20135
X20803Y19348
X21197Y19348
X21591Y19348
X21984Y19348
X22378Y18167
X21197Y18167
X21197Y17773
X20803Y17773
X20803Y18167
X21197Y16986
X21591Y16986
X22378Y16986
X22378Y16592
X23559Y16986
X23559Y17380
X23953Y17380
X24346Y17380
X24346Y16986
X23953Y16986
X23953Y16592
X24346Y16592
X24740Y16592
X25134Y16592
X25528Y16592
X24740Y15805
X24346Y15805
X23953Y15805
X24346Y15411
X24740Y15411
X25134Y15017
X25626Y14919
X25626Y15214
X25626Y14624
X25393Y14180
X27398Y14131
X27398Y13935
X27398Y13738
X27398Y13541
X27594Y13639
X27594Y13443
X27594Y13836
X27594Y14033
X27594Y14230
X27594Y14427
X27594Y14624
X27594Y14820
X27398Y14722
X27398Y14525
X27398Y14328
X28677Y14328
X28677Y14131
X28677Y13935
X28677Y13738
X28677Y13541
X28677Y13344
X28677Y13147
X28677Y12950
X28874Y13049
X28874Y13246
X28874Y13443
X28874Y13639
X28874Y13836
X28874Y14033
X28874Y14230
X28993Y15050
X28993Y15350
X28843Y15980
X28543Y15980
X29503Y15980
X29803Y15980
X30463Y15980
X30763Y15980
X31423Y15950
X31723Y15950
X31243Y15410
X30943Y15410
X30283Y15380
X29983Y15380
X33223Y15440
X33223Y15650
X33313Y16010
X33313Y16310
X33223Y16850
X33223Y17330
X33223Y17810
X33373Y18920
X33223Y19220
X33223Y19700
X33223Y20150
X33223Y20300
X34189Y20529
X34386Y20529
X34583Y20529
X34583Y20726
X34386Y20726
X34189Y20726
X34123Y19070
X34813Y19130
X34183Y16280
X34183Y16070
X31633Y19970
X31633Y20180
X31423Y20180
X31423Y19970
X27313Y19970
X27313Y20270
X27013Y19700
X25626Y20726
X25626Y21021
X25331Y21021
X25035Y21021
X25663Y21500
X25813Y21350
X25993Y21350
X25933Y21890
X25573Y22130
X26023Y22550
X24346Y20135
X24346Y19742
X24346Y19348
X24346Y18954
X23953Y18954
X23953Y18561
X24346Y18561
X24346Y18167
X23953Y18167
X23953Y17773
X24346Y17773
X24740Y18167
X24740Y18954
X24740Y19348
X23559Y19348
X23559Y19742
X23559Y20135
X23165Y20135
X21433Y21860
X21193Y22100
X19425Y21021
X19130Y21021
X19130Y20726
X18433Y20660
X18133Y21110
X18133Y21320
X17653Y20900
X17953Y20210
X16472Y20923
X16276Y20923
X15783Y20923
X15013Y20780
X14923Y20960
X14803Y20780
X14504Y20824
X14307Y20824
X13993Y20960
X13633Y21860
X13873Y22070
X14083Y22070
X12763Y21890
X12463Y21860
X12133Y21860
X11833Y21830
X11503Y21830
X11173Y21830
X10873Y21830
X10573Y21830
X10243Y21830
X9943Y21830
X9853Y22160
X9853Y22400
X10693Y23000
X12463Y23870
X12163Y24560
X12793Y24560
X13093Y24560
X11833Y25340
X11533Y25340
X11203Y25340
X10903Y25340
X10573Y25340
X10273Y25340
X9583Y26238
X9583Y26435
X13421Y26336
X13913Y26336
X14623Y26330
X14623Y26540
X14503Y26750
X15094Y26336
X15685Y26336
X16213Y26720
X16363Y26540
X16363Y26330
X17063Y26336
X17260Y26336
X17457Y26336
X17654Y26336
X16873Y24560
X16573Y24560
X15613Y24560
X16093Y23360
X19622Y20135
X20016Y20135
X20016Y19742
X16453Y17420
X16079Y18069
X16079Y18265
X15882Y18265
X14996Y17478
X14799Y17281
X14602Y17084
X14799Y16887
X14996Y16691
X15193Y16887
X15390Y17084
X15193Y17281
X16273Y17000
X16393Y16940
X15013Y15710
X14833Y15710
X14563Y15650
X14263Y15650
X13588Y16750
X13408Y16750
X13093Y16940
X12733Y17000
X12793Y16400
X12793Y16100
X13421Y17380
X13618Y17380
X13815Y18355
X14012Y18355
X12240Y19053
X12043Y19053
X11846Y19053
X11650Y19053
X11748Y19250
X11551Y19250
X11650Y19446
X11846Y19446
X12043Y19446
X11945Y19250
X12142Y19250
X11593Y18770
X11593Y18590
X11443Y18440
X11263Y18440
X11083Y18440
X11551Y18069
X11650Y18167
X11748Y18069
X11650Y17970
X11748Y17872
X11650Y17773
X11551Y17872
X11593Y17300
X11593Y17120
X11593Y16940
X11413Y16940
X11233Y16940
X9343Y17270
X9343Y17450
X9163Y17450
X9163Y17270
X9189Y18167
X8992Y18167
X8894Y18364
X8894Y18561
X8894Y18757
X8894Y18954
X9091Y19053
X9287Y19053
X9484Y19053
X9484Y18856
X9484Y18659
X9484Y18462
X9484Y18265
X8023Y18770
X7843Y18770
X7843Y18950
X7393Y18020
X7393Y17810
X7603Y17420
X7783Y17420
X7573Y15650
X7573Y15470
X7393Y15470
X7393Y15650
X7483Y15290
X6253Y15590
X6253Y15770
X6335Y14230
X6531Y14230
X6728Y14230
X6335Y14033
X6313Y13640
X7093Y13640
X6236Y12754
X6039Y12754
X5843Y12655
X5843Y12458
X5713Y13190
X6553Y12230
X6553Y11990
X10213Y14360
X5713Y19010
X7693Y20930
X7873Y20930
X8053Y20930
X8233Y20930
X9133Y21080
X9313Y20900
X20803Y16592
X20803Y15411
X23559Y17773
X24740Y17380
X16363Y9590
X15973Y9110
X21913Y26240
X21913Y26540
X21673Y26840
X21673Y27140
X27733Y27200
T02
X18013Y14120
T03
X17773Y13760
X19093Y11480
X14593Y12260
X8533Y13940
X8233Y12740
X29533Y20000
T04
X6894Y17065
X6894Y15175
T05
X8713Y11120
X9713Y11120
X10713Y11120
X11713Y11120
X12713Y11120
X13713Y11120
X15213Y12120
X16213Y12120
X17213Y12120
X17213Y13120
X16213Y13120
X15213Y13120
X28213Y20620
X29213Y20620
X29213Y21620
X28213Y21620
X28213Y22620
X29213Y22620
T06
X29713Y28120
X28713Y28120
X27713Y28120
X27713Y29120
X28713Y29120
X29713Y29120
X30713Y29120
X30713Y28120
X26713Y28120
X25713Y28120
X25713Y29120
X26713Y29120
X24713Y29120
X23713Y29120
X22713Y29120
X22713Y28120
X23713Y28120
X24713Y28120
X21713Y28120
X20713Y28120
X19713Y28120
X19713Y29120
X20713Y29120
X21713Y29120
X18713Y29120
X17713Y29120
X17713Y28120
X18713Y28120
X16713Y28120
X15713Y28120
X14713Y28120
X14713Y29120
X15713Y29120
X16713Y29120
X13713Y29120
X12713Y29120
X12713Y28120
X13713Y28120
X11713Y28120
X11713Y29120
X11713Y12120
X10713Y12120
X9713Y12120
X8713Y12120
X12713Y12120
X13713Y12120
X13713Y8120
X12713Y8120
X12713Y7120
X13713Y7120
X14713Y7120
X15713Y7120
X16713Y7120
X17713Y7120
X18713Y7120
X19713Y7120
X20713Y7120
X21713Y7120
X22713Y7120
X23713Y7120
X24713Y7120
X25713Y7120
X26713Y7120
X27713Y7120
X28713Y7120
X29713Y7120
X30713Y7120
X30713Y8120
X29713Y8120
X28713Y8120
X27713Y8120
X26713Y8120
X25713Y8120
X24713Y8120
X23713Y8120
X22713Y8120
X21713Y8120
X20713Y8120
X19713Y8120
X18713Y8120
X17713Y8120
X16713Y8120
X15713Y8120
X14713Y8120
X11713Y8120
X11713Y7120
T07
X5713Y15116
X5713Y17124
T08
X7213Y8120
X7213Y28120
X31213Y24120
X33213Y24120
X35213Y24120
X35213Y28120
X35213Y12120
X33213Y12120
X31213Y12120
X35213Y8120
M30
