G75*
G70*
%OFA0B0*%
%FSLAX24Y24*%
%IPPOS*%
%LPD*%
%AMOC8*
5,1,8,0,0,1.08239X$1,22.5*
%
%ADD10C,0.1340*%
%ADD11R,0.0789X0.0237*%
%ADD12O,0.0907X0.0493*%
%ADD13R,0.0867X0.0474*%
%ADD14R,0.0730X0.0730*%
%ADD15R,0.0395X0.0237*%
%ADD16C,0.0178*%
%ADD17R,0.1261X0.1261*%
%ADD18OC8,0.0671*%
%ADD19R,0.0434X0.0159*%
%ADD20R,0.0218X0.0474*%
%ADD21R,0.0780X0.0280*%
%ADD22C,0.0237*%
%ADD23R,0.0395X0.0316*%
%ADD24R,0.0316X0.0395*%
%ADD25R,0.0572X0.0375*%
%ADD26R,0.0375X0.0572*%
%ADD27R,0.0237X0.0395*%
%ADD28R,0.0336X0.0415*%
%ADD29C,0.0240*%
%ADD30R,0.0611X0.0611*%
%ADD31C,0.0611*%
D10*
X007213Y008120D03*
X007213Y028120D03*
X031213Y024120D03*
X033213Y024120D03*
X035213Y024120D03*
X035213Y028120D03*
X035213Y012120D03*
X033213Y012120D03*
X031213Y012120D03*
X035213Y008120D03*
D11*
X006815Y015608D03*
X006815Y015864D03*
X006815Y016120D03*
X006815Y016376D03*
X006815Y016631D03*
D12*
X006894Y017065D03*
X006894Y015175D03*
D13*
X005713Y015864D03*
X005713Y016376D03*
D14*
X005713Y017124D03*
X005713Y015116D03*
D15*
X006701Y013994D03*
X006701Y013620D03*
X006701Y013246D03*
X006201Y012494D03*
X006201Y012120D03*
X006201Y011746D03*
X007224Y011746D03*
X007224Y012494D03*
X007724Y013246D03*
X007724Y013994D03*
X009701Y017246D03*
X009701Y017620D03*
X009701Y017994D03*
X010724Y017994D03*
X010724Y017246D03*
X008474Y018496D03*
X008474Y019244D03*
X007451Y019244D03*
X007451Y018870D03*
X007451Y018496D03*
D16*
X013830Y017809D02*
X014126Y017809D01*
X014126Y017612D02*
X013830Y017612D01*
X013830Y017415D02*
X014126Y017415D01*
X014126Y017218D02*
X013830Y017218D01*
X013830Y017021D02*
X014126Y017021D01*
X014126Y016824D02*
X013830Y016824D01*
X013830Y016628D02*
X014126Y016628D01*
X014126Y016431D02*
X013830Y016431D01*
X014274Y016283D02*
X014274Y015987D01*
X014470Y015987D02*
X014470Y016283D01*
X014667Y016283D02*
X014667Y015987D01*
X014864Y015987D02*
X014864Y016283D01*
X015061Y016283D02*
X015061Y015987D01*
X015258Y015987D02*
X015258Y016283D01*
X015455Y016283D02*
X015455Y015987D01*
X015652Y015987D02*
X015652Y016283D01*
X015799Y016431D02*
X016095Y016431D01*
X016095Y016628D02*
X015799Y016628D01*
X015799Y016824D02*
X016095Y016824D01*
X016095Y017021D02*
X015799Y017021D01*
X015799Y017218D02*
X016095Y017218D01*
X016095Y017415D02*
X015799Y017415D01*
X015799Y017612D02*
X016095Y017612D01*
X016095Y017809D02*
X015799Y017809D01*
X015652Y017956D02*
X015652Y018252D01*
X015455Y018252D02*
X015455Y017956D01*
X015258Y017956D02*
X015258Y018252D01*
X015061Y018252D02*
X015061Y017956D01*
X014864Y017956D02*
X014864Y018252D01*
X014667Y018252D02*
X014667Y017956D01*
X014470Y017956D02*
X014470Y018252D01*
X014274Y018252D02*
X014274Y017956D01*
D17*
X014963Y017120D03*
D18*
X013713Y012120D03*
X012713Y012120D03*
X011713Y012120D03*
X010713Y012120D03*
X009713Y012120D03*
X008713Y012120D03*
X011713Y008120D03*
X012713Y008120D03*
X013713Y008120D03*
X014713Y008120D03*
X015713Y008120D03*
X016713Y008120D03*
X017713Y008120D03*
X018713Y008120D03*
X019713Y008120D03*
X020713Y008120D03*
X021713Y008120D03*
X022713Y008120D03*
X023713Y008120D03*
X024713Y008120D03*
X025713Y008120D03*
X026713Y008120D03*
X027713Y008120D03*
X028713Y008120D03*
X029713Y008120D03*
X030713Y008120D03*
X030713Y007120D03*
X029713Y007120D03*
X028713Y007120D03*
X027713Y007120D03*
X026713Y007120D03*
X025713Y007120D03*
X024713Y007120D03*
X023713Y007120D03*
X022713Y007120D03*
X021713Y007120D03*
X020713Y007120D03*
X019713Y007120D03*
X018713Y007120D03*
X017713Y007120D03*
X016713Y007120D03*
X015713Y007120D03*
X014713Y007120D03*
X013713Y007120D03*
X012713Y007120D03*
X011713Y007120D03*
X011713Y028120D03*
X012713Y028120D03*
X013713Y028120D03*
X014713Y028120D03*
X015713Y028120D03*
X016713Y028120D03*
X017713Y028120D03*
X018713Y028120D03*
X019713Y028120D03*
X020713Y028120D03*
X021713Y028120D03*
X022713Y028120D03*
X023713Y028120D03*
X024713Y028120D03*
X025713Y028120D03*
X026713Y028120D03*
X027713Y028120D03*
X028713Y028120D03*
X029713Y028120D03*
X030713Y028120D03*
X030713Y029120D03*
X029713Y029120D03*
X028713Y029120D03*
X027713Y029120D03*
X026713Y029120D03*
X025713Y029120D03*
X024713Y029120D03*
X023713Y029120D03*
X022713Y029120D03*
X021713Y029120D03*
X020713Y029120D03*
X019713Y029120D03*
X018713Y029120D03*
X017713Y029120D03*
X016713Y029120D03*
X015713Y029120D03*
X014713Y029120D03*
X013713Y029120D03*
X012713Y029120D03*
X011713Y029120D03*
D19*
X032661Y020797D03*
X032661Y020639D03*
X032661Y020482D03*
X032661Y020324D03*
X032661Y020167D03*
X032661Y020009D03*
X032661Y019852D03*
X032661Y019694D03*
X032661Y019537D03*
X032661Y019380D03*
X032661Y019222D03*
X032661Y019065D03*
X032661Y018907D03*
X032661Y018750D03*
X032661Y018592D03*
X032661Y018435D03*
X032661Y018277D03*
X032661Y018120D03*
X032661Y017962D03*
X032661Y017805D03*
X032661Y017647D03*
X032661Y017490D03*
X032661Y017332D03*
X032661Y017175D03*
X032661Y017017D03*
X032661Y016860D03*
X032661Y016702D03*
X032661Y016545D03*
X032661Y016387D03*
X032661Y016230D03*
X032661Y016072D03*
X032661Y015915D03*
X032661Y015757D03*
X032661Y015600D03*
X032661Y015443D03*
X033764Y015443D03*
X033764Y015600D03*
X033764Y015757D03*
X033764Y015915D03*
X033764Y016072D03*
X033764Y016230D03*
X033764Y016387D03*
X033764Y016545D03*
X033764Y016702D03*
X033764Y016860D03*
X033764Y017017D03*
X033764Y017175D03*
X033764Y017332D03*
X033764Y017490D03*
X033764Y017647D03*
X033764Y017805D03*
X033764Y017962D03*
X033764Y018120D03*
X033764Y018277D03*
X033764Y018435D03*
X033764Y018592D03*
X033764Y018750D03*
X033764Y018907D03*
X033764Y019065D03*
X033764Y019222D03*
X033764Y019380D03*
X033764Y019537D03*
X033764Y019694D03*
X033764Y019852D03*
X033764Y020009D03*
X033764Y020167D03*
X033764Y020324D03*
X033764Y020482D03*
X033764Y020639D03*
X033764Y020797D03*
D20*
X017807Y021336D03*
X017492Y021336D03*
X017177Y021336D03*
X016862Y021336D03*
X016547Y021336D03*
X016232Y021336D03*
X015917Y021336D03*
X015602Y021336D03*
X015287Y021336D03*
X014972Y021336D03*
X014657Y021336D03*
X014343Y021336D03*
X014028Y021336D03*
X013713Y021336D03*
X013398Y021336D03*
X013083Y021336D03*
X012768Y021336D03*
X012453Y021336D03*
X012138Y021336D03*
X011823Y021336D03*
X011508Y021336D03*
X011193Y021336D03*
X010878Y021336D03*
X010563Y021336D03*
X010248Y021336D03*
X009933Y021336D03*
X009618Y021336D03*
X009618Y025903D03*
X009933Y025903D03*
X010248Y025903D03*
X010563Y025903D03*
X010878Y025903D03*
X011193Y025903D03*
X011508Y025903D03*
X011823Y025903D03*
X012138Y025903D03*
X012453Y025903D03*
X012768Y025903D03*
X013083Y025903D03*
X013398Y025903D03*
X013713Y025903D03*
X014028Y025903D03*
X014343Y025903D03*
X014657Y025903D03*
X014972Y025903D03*
X015287Y025903D03*
X015602Y025903D03*
X015917Y025903D03*
X016232Y025903D03*
X016547Y025903D03*
X016862Y025903D03*
X017177Y025903D03*
X017492Y025903D03*
X017807Y025903D03*
D21*
X012563Y014370D03*
X012563Y013870D03*
X012563Y013370D03*
X012563Y012870D03*
X009363Y012870D03*
X009363Y013370D03*
X009363Y013870D03*
X009363Y014370D03*
D22*
X019425Y014820D03*
X019819Y014820D03*
X020213Y014820D03*
X020606Y014820D03*
X021000Y014820D03*
X021394Y014820D03*
X021787Y014820D03*
X022181Y014820D03*
X022575Y014820D03*
X022969Y014820D03*
X023362Y014820D03*
X023756Y014820D03*
X024150Y014820D03*
X024543Y014820D03*
X024937Y014820D03*
X025331Y014820D03*
X025331Y015214D03*
X025331Y015608D03*
X025331Y016002D03*
X025331Y016395D03*
X025331Y016789D03*
X025331Y017183D03*
X025331Y017576D03*
X024937Y017576D03*
X024937Y017183D03*
X024543Y017183D03*
X024543Y017576D03*
X024150Y017576D03*
X024150Y017183D03*
X024150Y016789D03*
X024543Y016789D03*
X024543Y016395D03*
X024150Y016395D03*
X024150Y016002D03*
X024543Y016002D03*
X024937Y016002D03*
X024937Y016395D03*
X024937Y016789D03*
X024937Y017970D03*
X024543Y017970D03*
X024150Y017970D03*
X024150Y018364D03*
X024543Y018364D03*
X024543Y018757D03*
X024150Y018757D03*
X023756Y018757D03*
X023756Y018364D03*
X023362Y018364D03*
X023362Y018757D03*
X022969Y018757D03*
X022969Y018364D03*
X022969Y017970D03*
X023362Y017970D03*
X023362Y017576D03*
X023362Y017183D03*
X022969Y017183D03*
X022969Y017576D03*
X022575Y017576D03*
X022575Y017183D03*
X022181Y017183D03*
X022181Y017576D03*
X021787Y017576D03*
X021394Y017576D03*
X021394Y017183D03*
X021787Y017183D03*
X021787Y016789D03*
X021394Y016789D03*
X021394Y016395D03*
X021787Y016395D03*
X021787Y016002D03*
X021394Y016002D03*
X021000Y016002D03*
X021000Y016395D03*
X020606Y016395D03*
X020213Y016395D03*
X020213Y016002D03*
X020606Y016002D03*
X020606Y015608D03*
X020213Y015608D03*
X020213Y015214D03*
X020606Y015214D03*
X021000Y015214D03*
X021394Y015214D03*
X021787Y015214D03*
X021787Y015608D03*
X021394Y015608D03*
X021000Y015608D03*
X022181Y015608D03*
X022181Y016002D03*
X022181Y016395D03*
X022575Y016395D03*
X022575Y016002D03*
X022969Y016002D03*
X023362Y016002D03*
X023362Y016395D03*
X022969Y016395D03*
X022969Y016789D03*
X023362Y016789D03*
X023756Y016789D03*
X023756Y017183D03*
X023756Y017576D03*
X023756Y017970D03*
X023756Y019151D03*
X024150Y019151D03*
X024543Y019151D03*
X024543Y019545D03*
X024150Y019545D03*
X023756Y019545D03*
X023362Y019545D03*
X022969Y019545D03*
X022969Y019151D03*
X023362Y019151D03*
X022575Y019151D03*
X022575Y018757D03*
X022575Y018364D03*
X022181Y018364D03*
X022181Y018757D03*
X021787Y018757D03*
X021787Y018364D03*
X021394Y018364D03*
X021394Y018757D03*
X021000Y018757D03*
X021000Y018364D03*
X020606Y018364D03*
X020213Y018364D03*
X020213Y018757D03*
X020606Y018757D03*
X020606Y019151D03*
X020213Y019151D03*
X020213Y019545D03*
X020606Y019545D03*
X021000Y019545D03*
X021394Y019545D03*
X021787Y019545D03*
X021787Y019151D03*
X021394Y019151D03*
X021000Y019151D03*
X022181Y019151D03*
X022181Y019545D03*
X022575Y019545D03*
X022575Y019939D03*
X022575Y020332D03*
X022969Y020332D03*
X023362Y020332D03*
X023362Y019939D03*
X022969Y019939D03*
X023756Y019939D03*
X023756Y020332D03*
X024150Y020332D03*
X024543Y020332D03*
X024543Y019939D03*
X024150Y019939D03*
X024150Y020726D03*
X024543Y020726D03*
X024937Y020726D03*
X024937Y020332D03*
X024937Y019939D03*
X025331Y019939D03*
X025331Y020332D03*
X025331Y020726D03*
X025331Y019545D03*
X025331Y019151D03*
X025331Y018757D03*
X025331Y018364D03*
X025331Y017970D03*
X024937Y018364D03*
X024937Y018757D03*
X024937Y019151D03*
X024937Y019545D03*
X023756Y020726D03*
X023362Y020726D03*
X022969Y020726D03*
X022575Y020726D03*
X022181Y020726D03*
X021787Y020726D03*
X021394Y020726D03*
X021394Y020332D03*
X021787Y020332D03*
X021787Y019939D03*
X021394Y019939D03*
X021000Y019939D03*
X021000Y020332D03*
X020606Y020332D03*
X020213Y020332D03*
X020213Y019939D03*
X020606Y019939D03*
X020606Y020726D03*
X020213Y020726D03*
X019819Y020726D03*
X019819Y020332D03*
X019819Y019939D03*
X019425Y019939D03*
X019425Y020332D03*
X019425Y020726D03*
X019425Y019545D03*
X019425Y019151D03*
X019425Y018757D03*
X019425Y018364D03*
X019819Y018364D03*
X019819Y018757D03*
X019819Y019151D03*
X019819Y019545D03*
X019819Y017970D03*
X020213Y017970D03*
X020606Y017970D03*
X020606Y017576D03*
X020606Y017183D03*
X020213Y017183D03*
X020213Y017576D03*
X019819Y017576D03*
X019819Y017183D03*
X019425Y017183D03*
X019425Y017576D03*
X019425Y017970D03*
X019425Y016789D03*
X019425Y016395D03*
X019425Y016002D03*
X019819Y016002D03*
X019819Y016395D03*
X019819Y016789D03*
X020213Y016789D03*
X020606Y016789D03*
X021000Y016789D03*
X021000Y017183D03*
X021000Y017576D03*
X021000Y017970D03*
X021394Y017970D03*
X021787Y017970D03*
X022181Y017970D03*
X022575Y017970D03*
X022575Y016789D03*
X022181Y016789D03*
X022575Y015608D03*
X022969Y015608D03*
X023362Y015608D03*
X023362Y015214D03*
X022969Y015214D03*
X022575Y015214D03*
X022181Y015214D03*
X023756Y015214D03*
X024150Y015214D03*
X024543Y015214D03*
X024543Y015608D03*
X024150Y015608D03*
X023756Y015608D03*
X023756Y016002D03*
X023756Y016395D03*
X024937Y015608D03*
X024937Y015214D03*
X019819Y015214D03*
X019425Y015214D03*
X019425Y015608D03*
X019819Y015608D03*
X022181Y019939D03*
X022181Y020332D03*
X021000Y020726D03*
D23*
X025933Y021585D03*
X025933Y022215D03*
X031433Y022222D03*
X031433Y021592D03*
X031433Y021139D03*
X031433Y020509D03*
X019713Y013435D03*
X019213Y013435D03*
X019213Y012805D03*
X019213Y012435D03*
X019713Y012435D03*
X019713Y012805D03*
X019713Y011805D03*
X019213Y011805D03*
X015980Y010214D03*
X015980Y009584D03*
X015291Y009584D03*
X015291Y010214D03*
X014933Y014805D03*
X014933Y015435D03*
X015743Y015555D03*
X015743Y014925D03*
X016713Y016805D03*
X016713Y017435D03*
X011213Y017305D03*
X011213Y017935D03*
X011213Y018805D03*
X011213Y019435D03*
X009213Y019435D03*
X009213Y018805D03*
X009213Y018435D03*
X009213Y017805D03*
X005713Y018055D03*
X005713Y018685D03*
X005713Y014185D03*
X005713Y013555D03*
X007713Y012435D03*
X007713Y011805D03*
X008213Y013305D03*
X008213Y013935D03*
D24*
X008528Y016870D03*
X007898Y016870D03*
X011398Y015120D03*
X012028Y015120D03*
X013888Y015310D03*
X014518Y015310D03*
X016398Y014620D03*
X017028Y014620D03*
X017358Y014610D03*
X017988Y014610D03*
X017408Y015360D03*
X017408Y015790D03*
X016778Y015790D03*
X016778Y015360D03*
X017648Y016870D03*
X018278Y016870D03*
X017028Y018120D03*
X016398Y018120D03*
X016028Y020870D03*
X015398Y020870D03*
X015398Y026370D03*
X016028Y026370D03*
X014278Y026370D03*
X013648Y026370D03*
D25*
X007967Y020570D03*
X007967Y019881D03*
X006967Y019320D03*
X006967Y018631D03*
D26*
X007762Y017874D03*
X008451Y017874D03*
D27*
X009839Y018608D03*
X010213Y018608D03*
X010587Y018608D03*
X010587Y019631D03*
X009839Y019631D03*
D28*
X017648Y017935D03*
X018278Y017935D03*
X018278Y017305D03*
X017648Y017305D03*
D29*
X017133Y010870D02*
X017135Y010888D01*
X017141Y010905D01*
X017150Y010920D01*
X017163Y010933D01*
X017178Y010942D01*
X017195Y010948D01*
X017213Y010950D01*
X017231Y010948D01*
X017248Y010942D01*
X017263Y010933D01*
X017276Y010920D01*
X017285Y010905D01*
X017291Y010888D01*
X017293Y010870D01*
X017291Y010852D01*
X017285Y010835D01*
X017276Y010820D01*
X017263Y010807D01*
X017248Y010798D01*
X017231Y010792D01*
X017213Y010790D01*
X017195Y010792D01*
X017178Y010798D01*
X017163Y010807D01*
X017150Y010820D01*
X017141Y010835D01*
X017135Y010852D01*
X017133Y010870D01*
X016133Y010870D02*
X016135Y010888D01*
X016141Y010905D01*
X016150Y010920D01*
X016163Y010933D01*
X016178Y010942D01*
X016195Y010948D01*
X016213Y010950D01*
X016231Y010948D01*
X016248Y010942D01*
X016263Y010933D01*
X016276Y010920D01*
X016285Y010905D01*
X016291Y010888D01*
X016293Y010870D01*
X016291Y010852D01*
X016285Y010835D01*
X016276Y010820D01*
X016263Y010807D01*
X016248Y010798D01*
X016231Y010792D01*
X016213Y010790D01*
X016195Y010792D01*
X016178Y010798D01*
X016163Y010807D01*
X016150Y010820D01*
X016141Y010835D01*
X016135Y010852D01*
X016133Y010870D01*
X015133Y010870D02*
X015135Y010888D01*
X015141Y010905D01*
X015150Y010920D01*
X015163Y010933D01*
X015178Y010942D01*
X015195Y010948D01*
X015213Y010950D01*
X015231Y010948D01*
X015248Y010942D01*
X015263Y010933D01*
X015276Y010920D01*
X015285Y010905D01*
X015291Y010888D01*
X015293Y010870D01*
X015291Y010852D01*
X015285Y010835D01*
X015276Y010820D01*
X015263Y010807D01*
X015248Y010798D01*
X015231Y010792D01*
X015213Y010790D01*
X015195Y010792D01*
X015178Y010798D01*
X015163Y010807D01*
X015150Y010820D01*
X015141Y010835D01*
X015135Y010852D01*
X015133Y010870D01*
X030463Y020590D02*
X030465Y020608D01*
X030471Y020625D01*
X030480Y020640D01*
X030493Y020653D01*
X030508Y020662D01*
X030525Y020668D01*
X030543Y020670D01*
X030561Y020668D01*
X030578Y020662D01*
X030593Y020653D01*
X030606Y020640D01*
X030615Y020625D01*
X030621Y020608D01*
X030623Y020590D01*
X030621Y020572D01*
X030615Y020555D01*
X030606Y020540D01*
X030593Y020527D01*
X030578Y020518D01*
X030561Y020512D01*
X030543Y020510D01*
X030525Y020512D01*
X030508Y020518D01*
X030493Y020527D01*
X030480Y020540D01*
X030471Y020555D01*
X030465Y020572D01*
X030463Y020590D01*
X030443Y021600D02*
X030445Y021618D01*
X030451Y021635D01*
X030460Y021650D01*
X030473Y021663D01*
X030488Y021672D01*
X030505Y021678D01*
X030523Y021680D01*
X030541Y021678D01*
X030558Y021672D01*
X030573Y021663D01*
X030586Y021650D01*
X030595Y021635D01*
X030601Y021618D01*
X030603Y021600D01*
X030601Y021582D01*
X030595Y021565D01*
X030586Y021550D01*
X030573Y021537D01*
X030558Y021528D01*
X030541Y021522D01*
X030523Y021520D01*
X030505Y021522D01*
X030488Y021528D01*
X030473Y021537D01*
X030460Y021550D01*
X030451Y021565D01*
X030445Y021582D01*
X030443Y021600D01*
X030483Y022640D02*
X030485Y022658D01*
X030491Y022675D01*
X030500Y022690D01*
X030513Y022703D01*
X030528Y022712D01*
X030545Y022718D01*
X030563Y022720D01*
X030581Y022718D01*
X030598Y022712D01*
X030613Y022703D01*
X030626Y022690D01*
X030635Y022675D01*
X030641Y022658D01*
X030643Y022640D01*
X030641Y022622D01*
X030635Y022605D01*
X030626Y022590D01*
X030613Y022577D01*
X030598Y022568D01*
X030581Y022562D01*
X030563Y022560D01*
X030545Y022562D01*
X030528Y022568D01*
X030513Y022577D01*
X030500Y022590D01*
X030491Y022605D01*
X030485Y022622D01*
X030483Y022640D01*
D30*
X028213Y022620D03*
X017213Y013120D03*
X013713Y011120D03*
X012713Y011120D03*
X011713Y011120D03*
X010713Y011120D03*
X009713Y011120D03*
X008713Y011120D03*
D31*
X015213Y012120D03*
X016213Y012120D03*
X017213Y012120D03*
X016213Y013120D03*
X015213Y013120D03*
X028213Y020620D03*
X029213Y020620D03*
X029213Y021620D03*
X028213Y021620D03*
X029213Y022620D03*
M02*
